<?xml version="1.0" ?>
<!DOCTYPE svg  PUBLIC '-//W3C//DTD SVG 1.1//EN'  'http://www.w3.org/Graphics/SVG/1.1/DTD/svg11.dtd'>
<!-- Uploaded to: SVG Repo, www.svgrepo.com, Generator: SVG Repo Mixer Tools -->
<svg width="800px" height="800px" viewBox="0 0 129.921 129.921" enable-background="new 0 0 129.921 129.921" version="1.1" xml:space="preserve" xmlns="http://www.w3.org/2000/svg" xmlns:xlink="http://www.w3.org/1999/xlink">
<g id="Layer_2"/>
<g id="Layer_1">
<g>
<g>
<path d="M63.777,126.576c-3.339,0-6.45-0.16-9.246-0.476c-1.917-0.219-3.733-0.511-5.397-0.868     c-18.175-3.878-21.597-15.901-22.545-27.151c-0.079-0.951-0.139-1.873-0.18-2.746c-0.182-3.441-0.182-7.009-0.182-10.784     s0-7.341,0.176-10.805c0.05-0.924,0.111-1.833,0.185-2.724c0.875-10.37,3.815-21.594,18.993-26.246     c0.771-0.233,1.421-0.412,2.06-0.568c0.323-0.083,0.681-0.166,1.045-0.249l0.541-0.117c0.214-0.047,0.452-0.094,0.691-0.141     l0.779-0.143c0.064-0.014,0.136-0.027,0.209-0.039l0.406-0.069c0.282-0.048,0.579-0.098,0.875-0.142     c0.196-0.033,0.393-0.061,0.595-0.088l0.016-0.002c0.083-0.012,0.154-0.022,0.223-0.03l0.793-0.102     c0.181-0.023,0.375-0.047,0.574-0.067l0.138-0.019c0.432-0.049,0.871-0.093,1.315-0.136l1.384-0.114     c0.391-0.028,0.799-0.054,1.213-0.079c0.533-0.032,1.076-0.062,1.631-0.081c2.344-0.097,5.057-0.097,7.443,0     c0.516,0.019,1.042,0.048,1.563,0.078l0.63,0.038c0.632,0.042,1.228,0.084,1.807,0.142c0.074,0.003,0.156,0.01,0.247,0.02     c0.178,0.019,0.355,0.035,0.529,0.056c0.252,0.02,0.5,0.045,0.741,0.077c0.378,0.04,0.756,0.088,1.122,0.139     c0.222,0.026,0.5,0.066,0.771,0.105c0.22,0.031,0.451,0.065,0.681,0.102c0.096,0.01,0.192,0.026,0.287,0.045     c0.124,0.019,0.246,0.04,0.368,0.061c0.391,0.061,0.817,0.142,1.238,0.223c0.176,0.03,0.339,0.06,0.51,0.098     c0.137,0.028,0.29,0.061,0.441,0.098l0.056,0.011c0.134,0.024,0.244,0.049,0.35,0.077c0.122,0.024,0.24,0.051,0.358,0.081     c0.245,0.057,0.489,0.113,0.734,0.178c0.331,0.083,0.667,0.17,0.998,0.264c0.359,0.094,0.706,0.194,1.045,0.301     c15.175,4.649,18.112,15.875,18.98,26.243c0.074,0.895,0.135,1.796,0.185,2.711c0.177,3.473,0.177,7.038,0.177,10.813     s0,7.343-0.183,10.804c-0.048,1.032-0.105,1.906-0.18,2.736c-0.941,11.232-4.358,23.255-22.547,27.143     c-1.671,0.357-3.487,0.649-5.398,0.866C70.227,126.416,67.116,126.576,63.777,126.576z M53.551,49.117     c-0.134,0.018-0.264,0.036-0.394,0.058l-0.072,0.012c-0.263,0.039-0.525,0.083-0.782,0.126l-0.475,0.08     c-0.062,0.013-0.127,0.025-0.19,0.036l-0.567,0.106c-0.2,0.039-0.389,0.076-0.579,0.118l-0.524,0.112     c-0.272,0.063-0.58,0.134-0.882,0.211c-0.564,0.139-1.119,0.292-1.774,0.49C36.219,53.864,33.372,61.34,32.514,71.518     c-0.069,0.829-0.127,1.682-0.172,2.538c-0.168,3.304-0.168,6.798-0.168,10.494s0,7.187,0.174,10.49     c0.039,0.819,0.094,1.67,0.167,2.546c0.956,11.328,4.277,18.934,17.865,21.832c1.479,0.316,3.101,0.577,4.823,0.774     c2.573,0.29,5.459,0.438,8.576,0.438s6.003-0.147,8.578-0.438c1.716-0.196,3.34-0.457,4.824-0.774     c13.552-2.896,16.944-10.826,17.868-21.842c0.068-0.76,0.12-1.555,0.165-2.519c0.175-3.321,0.175-6.812,0.175-10.508     s0-7.19-0.168-10.503c-0.045-0.85-0.103-1.693-0.172-2.528c-0.852-10.175-3.699-17.652-14.816-21.058     c-0.275-0.086-0.537-0.162-0.807-0.232l-0.068-0.019c-0.288-0.082-0.583-0.157-0.882-0.234c-0.218-0.055-0.425-0.103-0.632-0.151     l-0.087-0.022c-0.057-0.014-0.114-0.024-0.173-0.036l-0.536-0.118c-0.088-0.023-0.178-0.041-0.269-0.06     c-0.116-0.025-0.202-0.04-0.296-0.055l-0.077-0.014c-0.364-0.07-0.732-0.142-1.112-0.202c-0.12-0.02-0.206-0.036-0.286-0.047     l-0.376-0.06c-0.183-0.03-0.37-0.056-0.556-0.083c-0.233-0.034-0.455-0.065-0.676-0.092c-0.364-0.048-0.683-0.092-1.001-0.124     l-0.101-0.011c-0.168-0.023-0.341-0.04-0.519-0.053l-0.164-0.017c-0.126-0.016-0.256-0.029-0.387-0.042l-0.198-0.014     c-0.551-0.057-1.118-0.096-1.697-0.135l-0.568-0.033c-0.503-0.03-0.98-0.058-1.468-0.075c-2.271-0.093-4.772-0.092-7.002-0.001     c-0.528,0.019-1.02,0.047-1.5,0.075c-0.379,0.023-0.756,0.045-1.133,0.074l-1.271,0.104c-0.367,0.036-0.759,0.075-1.148,0.119     l-0.218,0.027c-0.156,0.016-0.307,0.035-0.458,0.055l-0.845,0.107C53.666,49.101,53.608,49.11,53.551,49.117z"/>
</g>
<g>
<g>
<path d="M63.783,11.883c-3.151,2.199-5.879,4.964-8.032,8.145c-2.89-1.541-6.052-2.641-9.393-3.205      c-4.103-3.674-9.269-6.154-14.935-6.855c4.358-2.33,9.328-3.65,14.614-3.65C52.63,6.318,58.748,8.375,63.783,11.883z" fill="#FFFFFF"/>
<path d="M55.75,23.001c-0.473,0-0.952-0.114-1.396-0.35c-2.666-1.421-5.522-2.395-8.491-2.897      c-0.554-0.093-1.07-0.342-1.488-0.717c-3.789-3.394-8.393-5.509-13.316-6.12c-1.286-0.159-2.32-1.132-2.557-2.405      s0.378-2.555,1.521-3.166c4.896-2.617,10.434-4.002,16.016-4.002c6.993,0,13.717,2.109,19.444,6.099      c0.798,0.555,1.273,1.465,1.274,2.438c0,0.972-0.474,1.883-1.271,2.438c-2.87,2.003-5.316,4.485-7.271,7.374      C57.643,22.537,56.708,23.001,55.75,23.001z M47.694,14.045c2.453,0.478,4.838,1.224,7.125,2.229      c1.146-1.446,2.402-2.793,3.764-4.034c-3.875-1.939-8.146-2.95-12.545-2.95c-1.696,0-3.362,0.146-4.993,0.438      C43.412,10.86,45.645,12.306,47.694,14.045z"/>
</g>
<g>
<path d="M96.13,9.968c-5.666,0.701-10.832,3.181-14.928,6.855c-3.348,0.564-6.51,1.664-9.394,3.205      c-3.009,1.604-5.719,3.691-8.026,6.159c-2.313-2.468-5.023-4.555-8.032-6.159c2.152-3.181,4.881-5.946,8.032-8.145      c5.023-3.508,11.141-5.565,17.741-5.565C86.803,6.318,91.779,7.638,96.13,9.968z" fill="#FFFFFF"/>
<path d="M63.783,29.159c-0.822,0-1.607-0.34-2.169-0.94c-2.107-2.249-4.551-4.123-7.262-5.569      c-0.743-0.396-1.284-1.09-1.486-1.908c-0.202-0.817-0.049-1.683,0.424-2.38c2.365-3.494,5.323-6.494,8.792-8.916      c5.716-3.991,12.439-6.101,19.442-6.101c5.583,0,11.12,1.385,16.01,4.003c1.142,0.612,1.756,1.892,1.52,3.165      c-0.238,1.274-1.272,2.246-2.558,2.405c-4.924,0.61-9.527,2.726-13.309,6.118c-0.418,0.376-0.936,0.625-1.491,0.719      c-2.973,0.501-5.828,1.475-8.487,2.895c-2.714,1.449-5.155,3.322-7.254,5.568c-0.562,0.6-1.347,0.941-2.169,0.942      C63.785,29.159,63.784,29.159,63.783,29.159z M60.119,19.188c1.284,0.864,2.507,1.815,3.663,2.847      c2.013-1.8,4.233-3.351,6.628-4.63c2.974-1.588,6.151-2.716,9.456-3.359c2.043-1.736,4.27-3.18,6.63-4.311      c-1.636-0.295-3.301-0.445-4.972-0.445c-5.78,0-11.326,1.74-16.039,5.029C63.482,15.719,61.686,17.349,60.119,19.188z"/>
</g>
<g>
<path d="M63.783,26.187c-1.617,1.711-3.032,3.607-4.221,5.653h-3.157c-0.512-0.356-1.035-0.701-1.569-1.028      H54.83c-1.04-0.635-2.122-1.213-3.24-1.73h-0.006c-3.311-1.521-6.932-2.479-10.749-2.747h-0.012      c-3.995-3.371-8.924-5.642-14.298-6.307c4.358-2.325,9.328-3.645,14.613-3.645c1.778,0,3.52,0.149,5.22,0.44      c3.341,0.564,6.503,1.664,9.393,3.205C58.76,21.632,61.471,23.719,63.783,26.187z" fill="#FFFFFF"/>
<path d="M59.562,34.813h-3.157c-0.608,0-1.202-0.187-1.701-0.536c-0.447-0.311-0.887-0.601-1.313-0.864      c-0.038-0.021-0.075-0.043-0.112-0.065c-0.904-0.553-1.858-1.065-2.838-1.522c-0.033-0.014-0.066-0.028-0.099-0.044      c-3.066-1.408-6.331-2.244-9.704-2.481c-0.633-0.041-1.247-0.284-1.733-0.694c-3.681-3.106-8.088-5.052-12.746-5.63      c-1.287-0.159-2.322-1.133-2.558-2.408c-0.236-1.274,0.38-2.554,1.523-3.165c4.898-2.613,10.436-3.994,16.012-3.994      c1.928,0,3.853,0.162,5.722,0.483c3.593,0.606,7.057,1.789,10.289,3.511c3.288,1.754,6.249,4.025,8.803,6.75      c1.075,1.147,1.071,2.932-0.008,4.074c-1.456,1.542-2.738,3.26-3.812,5.107C61.6,34.25,60.622,34.813,59.562,34.813z       M57.318,28.868h0.586c0.563-0.862,1.163-1.698,1.8-2.503c-1.632-1.441-3.424-2.686-5.352-3.715      c-2.665-1.42-5.521-2.394-8.489-2.896c-3.192-0.547-6.557-0.525-9.718,0.038c2.06,0.986,4.021,2.21,5.845,3.657      c3.719,0.364,7.322,1.332,10.725,2.88c0.042,0.018,0.083,0.035,0.124,0.055c1.179,0.545,2.33,1.157,3.424,1.819      c0.042,0.024,0.083,0.046,0.124,0.072C56.692,28.462,57.003,28.66,57.318,28.868z"/>
</g>
<g>
<path d="M59.562,31.84c-0.327,0.559-0.636,1.13-0.927,1.712c-0.719-0.6-1.462-1.177-2.229-1.712H59.562z" fill="#FFFFFF"/>
<path d="M58.635,36.525c-0.689,0-1.365-0.241-1.904-0.69c-0.707-0.59-1.369-1.098-2.025-1.556      c-1.065-0.743-1.525-2.09-1.135-3.329c0.389-1.239,1.537-2.082,2.835-2.082h3.157c1.065,0,2.05,0.569,2.579,1.494      c0.53,0.924,0.525,2.061-0.014,2.981c-0.292,0.499-0.572,1.016-0.833,1.537c-0.407,0.814-1.162,1.396-2.051,1.583      C59.042,36.504,58.837,36.525,58.635,36.525z"/>
</g>
<g>
<path d="M101.03,20.028c-5.381,0.666-10.309,2.936-14.304,6.307H86.72c-3.811,0.267-7.438,1.225-10.749,2.747      c-1.118,0.512-2.194,1.095-3.24,1.73h-0.006c-0.535,0.327-1.058,0.672-1.57,1.028c-0.772,0.536-1.516,1.112-2.229,1.712      c-1.932,1.63-3.663,3.484-5.148,5.529c-0.286-0.393-0.577-0.778-0.886-1.153c-1.272-1.594-2.699-3.062-4.257-4.376      c0.292-0.583,0.601-1.153,0.927-1.712c1.189-2.045,2.604-3.941,4.221-5.653c2.307-2.468,5.017-4.555,8.026-6.159      c2.883-1.541,6.046-2.641,9.394-3.205c1.694-0.291,3.442-0.44,5.219-0.44C91.701,16.383,96.678,17.703,101.03,20.028z" fill="#FFFFFF"/>
<path d="M63.777,42.053c-0.951,0-1.845-0.455-2.404-1.224c-0.295-0.406-0.542-0.727-0.774-1.009      c-1.183-1.48-2.478-2.813-3.881-3.996c-1.049-0.885-1.356-2.373-0.743-3.601c0.319-0.639,0.663-1.273,1.021-1.886      c1.298-2.233,2.855-4.319,4.625-6.192c2.537-2.712,5.497-4.985,8.788-6.741c3.226-1.723,6.691-2.905,10.299-3.513      c1.854-0.319,3.78-0.481,5.713-0.481c5.58,0,11.116,1.381,16.008,3.995c1.143,0.61,1.759,1.891,1.522,3.165      s-1.271,2.248-2.557,2.407c-4.662,0.578-9.072,2.523-12.752,5.63c-0.496,0.417-1.113,0.663-1.757,0.696      c-3.363,0.241-6.617,1.075-9.673,2.479c-0.968,0.444-1.928,0.956-2.938,1.57c-0.035,0.021-0.07,0.042-0.106,0.063      c-0.426,0.262-0.867,0.553-1.311,0.862c-0.661,0.458-1.336,0.977-2.018,1.55c-1.751,1.477-3.319,3.16-4.658,5.001      C65.623,41.599,64.729,42.053,63.777,42.053z M62.371,32.932c0.482,0.471,0.952,0.958,1.406,1.456      c1.007-1.103,2.088-2.142,3.233-3.107c0.826-0.695,1.651-1.328,2.455-1.885c0.569-0.398,1.148-0.776,1.71-1.12      c0.042-0.026,0.085-0.052,0.129-0.076c1.167-0.704,2.291-1.301,3.43-1.821c3.429-1.576,7.067-2.56,10.824-2.928      c1.821-1.444,3.778-2.667,5.835-3.652c-3.202-0.573-6.554-0.584-9.687-0.045c-2.982,0.503-5.838,1.477-8.497,2.896      c-2.714,1.449-5.155,3.322-7.254,5.568C64.595,29.656,63.394,31.237,62.371,32.932z"/>
</g>
<g>
<path d="M49.848,46.75c-0.03,0.005-0.06,0.012-0.089,0.025c-0.137,0.022-0.273,0.053-0.41,0.083      C49.515,46.822,49.681,46.787,49.848,46.75z" fill="#FFFFFF"/>
<path d="M49.346,49.831c-1.372,0-2.604-0.955-2.904-2.349c-0.344-1.604,0.675-3.183,2.277-3.529l0.464-0.099      c0,0,0.012-0.003,0.023-0.005c0.007-0.001,0.014-0.002,0.021-0.004c0,0,0.002-0.001,0.002-0.001      c0.018-0.002,0.033-0.007,0.046-0.009c1.605-0.311,3.158,0.723,3.484,2.322c0.32,1.564-0.653,3.096-2.191,3.479      c-0.099,0.028-0.199,0.051-0.3,0.068l-0.301,0.062C49.759,49.81,49.551,49.831,49.346,49.831z"/>
</g>
<g>
<path d="M51.162,46.495c-0.226,0.042-0.452,0.083-0.672,0.125c0.149-0.03,0.297-0.059,0.453-0.089      C51.013,46.519,51.084,46.507,51.162,46.495z" fill="#FFFFFF"/>
<path d="M50.486,49.592c-1.396,0-2.64-0.988-2.915-2.409c-0.311-1.605,0.735-3.159,2.338-3.479l0.789-0.145      c1.606-0.257,3.119,0.83,3.394,2.434c0.274,1.604-0.79,3.128-2.389,3.425l-0.666,0.124      C50.853,49.576,50.668,49.592,50.486,49.592z"/>
</g>
<g>
<path d="M63.777,39.081c-0.654,0.905-1.267,1.85-1.825,2.825c-0.672,1.17-1.272,2.39-1.784,3.656      c-0.529,0.017-1.046,0.048-1.552,0.077c-0.398,0.024-0.796,0.048-1.183,0.077c-0.083,0.006-0.166,0.013-0.249,0.019      c-0.357,0.029-0.708,0.059-1.052,0.088c-0.429,0.042-0.851,0.084-1.267,0.132c-0.042,0.006-0.083,0.012-0.125,0.018      c-0.19,0.018-0.375,0.042-0.559,0.065c-0.285,0.036-0.559,0.072-0.838,0.107c-0.054,0.006-0.113,0.018-0.167,0.024      c-0.178,0.024-0.351,0.047-0.523,0.077c-0.286,0.042-0.571,0.09-0.851,0.137c-0.143,0.024-0.279,0.047-0.416,0.071      c-0.078,0.011-0.154,0.03-0.226,0.041c-0.077,0.013-0.148,0.024-0.219,0.036c-0.155,0.03-0.304,0.059-0.453,0.089      c-0.214,0.042-0.428,0.083-0.642,0.131c-0.167,0.036-0.333,0.071-0.499,0.107c-0.339,0.076-0.671,0.155-0.999,0.237      c-0.654,0.161-1.284,0.339-1.896,0.523c-3.579-9.387-12.206-16.443-22.425-17.715c4.352-2.325,9.328-3.646,14.607-3.646      c0.737,0,1.462,0.031,2.188,0.078h0.012c3.817,0.267,7.438,1.225,10.749,2.747h0.006c1.118,0.517,2.2,1.095,3.24,1.73h0.006      c0.535,0.327,1.058,0.672,1.569,1.028c0.767,0.536,1.51,1.112,2.229,1.712c1.558,1.314,2.985,2.782,4.257,4.376      C63.2,38.303,63.492,38.688,63.777,39.081z" fill="#FFFFFF"/>
<path d="M46.452,50.592c-1.203,0-2.327-0.736-2.776-1.915c-3.242-8.503-11.098-14.715-20.015-15.825      c-1.286-0.16-2.319-1.134-2.555-2.408c-0.237-1.274,0.379-2.554,1.522-3.164c4.893-2.614,10.428-3.996,16.008-3.996      c0.725,0,1.489,0.027,2.332,0.081c0.026,0.001,0.051,0.002,0.076,0.004c4.054,0.283,7.98,1.28,11.672,2.959      c0.042,0.018,0.083,0.035,0.124,0.055c1.179,0.545,2.33,1.157,3.424,1.819c0.042,0.024,0.083,0.046,0.124,0.072      c0.561,0.342,1.14,0.722,1.721,1.126c0.797,0.556,1.593,1.167,2.433,1.867c1.712,1.445,3.281,3.058,4.675,4.805      c0.281,0.339,0.598,0.751,0.967,1.259c0.756,1.041,0.758,2.449,0.004,3.49c-0.598,0.827-1.154,1.688-1.655,2.561      c-0.621,1.082-1.161,2.189-1.606,3.291c-0.44,1.091-1.482,1.82-2.658,1.857c-0.503,0.018-0.995,0.046-1.476,0.074      c-0.378,0.023-0.76,0.045-1.13,0.074l-1.274,0.104c-0.367,0.036-0.759,0.075-1.148,0.119l-0.089,0.012      c-0.042,0.006-0.086,0.012-0.128,0.015c-0.156,0.016-0.308,0.035-0.458,0.055l-0.845,0.107      c-0.051,0.008-0.108,0.017-0.166,0.023c-0.134,0.018-0.265,0.036-0.395,0.058c-0.024,0.004-0.049,0.008-0.072,0.012      c-0.263,0.039-0.525,0.083-0.782,0.126l-0.4,0.068c-0.022,0.003-0.051,0.008-0.074,0.012c-0.062,0.013-0.127,0.025-0.189,0.036      l-0.568,0.106c-0.2,0.039-0.389,0.076-0.579,0.118l-0.525,0.112c-0.271,0.063-0.579,0.134-0.882,0.211      c-0.564,0.139-1.119,0.292-1.774,0.49C47.026,50.551,46.737,50.592,46.452,50.592z M33.627,29.68      c6.238,2.994,11.446,8.083,14.529,14.403c0.173-0.042,0.352-0.083,0.531-0.123l0.541-0.117c0.214-0.047,0.452-0.094,0.691-0.141      l0.778-0.143c0.065-0.014,0.136-0.027,0.209-0.039l0.407-0.069c0.282-0.048,0.579-0.098,0.875-0.142      c0.196-0.033,0.392-0.061,0.595-0.088c0.004,0,0.009-0.001,0.014-0.001c0.083-0.013,0.156-0.023,0.225-0.031l0.793-0.102      c0.181-0.023,0.375-0.047,0.574-0.067l0.063-0.01c0.024-0.003,0.049-0.007,0.074-0.009c0.432-0.049,0.871-0.093,1.315-0.136      l1.383-0.114c0.306-0.023,0.631-0.043,0.961-0.063c0.362-0.761,0.759-1.517,1.187-2.261c0.232-0.406,0.476-0.811,0.728-1.211      c-1.046-1.241-2.175-2.371-3.384-3.39c-0.694-0.58-1.357-1.088-2.013-1.546c-0.447-0.311-0.888-0.602-1.313-0.865      c-0.038-0.021-0.075-0.043-0.112-0.065c-0.904-0.553-1.858-1.065-2.838-1.522c-0.033-0.014-0.066-0.028-0.099-0.044      c-3.054-1.403-6.305-2.236-9.664-2.478c-0.017-0.001-0.034-0.002-0.051-0.003c-0.732-0.048-1.384-0.072-1.993-0.072      C36.953,29.229,35.275,29.382,33.627,29.68z"/>
</g>
<g>
<path d="M71.993,45.883c-0.22-0.023-0.439-0.047-0.666-0.066c0.036,0,0.066,0,0.102,0.005      C71.619,45.842,71.809,45.859,71.993,45.883z" fill="#FFFFFF"/>
<path d="M71.997,48.856c-0.107,0-0.214-0.006-0.323-0.018H71.67c-0.191-0.021-0.382-0.042-0.579-0.057      c-1.591-0.127-2.798-1.487-2.735-3.082c0.063-1.594,1.375-2.855,2.97-2.855c0.113,0,0.258,0.003,0.434,0.024      c0.172,0.018,0.343,0.033,0.511,0.054c1.517,0.135,2.706,1.41,2.706,2.961c0,1.616-1.289,2.932-2.896,2.971      C72.053,48.856,72.026,48.856,71.997,48.856z"/>
</g>
<g>
<path d="M103.532,29.903c-10.226,1.272-18.852,8.329-22.431,17.715c-0.303-0.094-0.612-0.184-0.934-0.266      c-0.315-0.091-0.636-0.173-0.963-0.257c-0.232-0.06-0.464-0.113-0.696-0.166c-0.113-0.029-0.226-0.054-0.345-0.078      c-0.059-0.018-0.113-0.03-0.178-0.042c-0.065-0.012-0.125-0.023-0.185-0.034c-0.136-0.037-0.279-0.066-0.422-0.096      c-0.136-0.03-0.267-0.053-0.41-0.077c-0.398-0.077-0.803-0.155-1.219-0.22c-0.137-0.024-0.273-0.047-0.411-0.066      c-0.036-0.011-0.071-0.018-0.107-0.018c-0.244-0.042-0.488-0.083-0.743-0.112c-0.244-0.036-0.494-0.072-0.743-0.101      c-0.345-0.049-0.702-0.096-1.059-0.131c-0.226-0.03-0.458-0.054-0.696-0.071c-0.184-0.023-0.375-0.041-0.564-0.061      c-0.036-0.005-0.065-0.005-0.102-0.005c-0.582-0.059-1.183-0.101-1.795-0.142c-0.196-0.012-0.398-0.025-0.6-0.036      c-0.506-0.029-1.017-0.06-1.54-0.077c-1.16-0.048-2.361-0.071-3.615-0.071c-1.249,0-2.449,0.022-3.609,0.071      c0.511-1.267,1.112-2.486,1.784-3.656c0.559-0.975,1.171-1.92,1.825-2.825c1.486-2.044,3.216-3.899,5.148-5.529      c0.713-0.6,1.457-1.177,2.229-1.712c0.512-0.356,1.035-0.701,1.57-1.028h0.006c1.046-0.635,2.122-1.218,3.24-1.73      c3.312-1.521,6.938-2.479,10.749-2.747h0.006c0.725-0.047,1.456-0.078,2.194-0.078C94.205,26.257,99.175,27.578,103.532,29.903z      " fill="#FFFFFF"/>
<path d="M81.102,50.592c-0.295,0-0.595-0.044-0.891-0.137c-0.256-0.08-0.517-0.155-0.788-0.226      c-0.023-0.005-0.045-0.013-0.068-0.019c-0.289-0.082-0.583-0.157-0.882-0.234c-0.218-0.055-0.425-0.103-0.632-0.151      c-0.029-0.006-0.058-0.013-0.087-0.021c-0.056-0.015-0.114-0.025-0.173-0.037c-0.062-0.013-0.123-0.027-0.183-0.044L77.27,49.7      c-0.061-0.012-0.165-0.035-0.225-0.05c-0.087-0.023-0.178-0.041-0.269-0.06c-0.116-0.025-0.202-0.04-0.295-0.055      c-0.026-0.005-0.052-0.01-0.077-0.014c-0.364-0.07-0.732-0.142-1.112-0.202c-0.147-0.025-0.243-0.043-0.339-0.055      c-0.054-0.007-0.107-0.016-0.16-0.025c-0.018-0.003-0.037-0.005-0.055-0.009c-0.213-0.036-0.397-0.069-0.59-0.091      c-0.031-0.003-0.062-0.008-0.092-0.012c-0.216-0.032-0.438-0.063-0.659-0.09c-0.364-0.048-0.683-0.092-1.001-0.124      c-0.034-0.003-0.067-0.007-0.101-0.011c-0.168-0.023-0.341-0.04-0.519-0.053c-0.055-0.005-0.109-0.01-0.164-0.017      c-0.137-0.018-0.279-0.031-0.422-0.044c-0.055-0.003-0.111-0.006-0.164-0.012c-0.551-0.057-1.118-0.096-1.697-0.135      l-0.568-0.033c-0.502-0.03-0.979-0.058-1.468-0.075c-2.27-0.093-4.772-0.092-7.002-0.001c-1.004,0.042-1.97-0.431-2.552-1.257      c-0.582-0.824-0.705-1.89-0.327-2.825c0.546-1.354,1.206-2.707,1.962-4.023c0.603-1.053,1.274-2.092,1.995-3.087      c1.625-2.235,3.521-4.272,5.641-6.059c0.826-0.695,1.651-1.328,2.455-1.885c0.569-0.398,1.148-0.777,1.71-1.12      c0.042-0.026,0.085-0.052,0.129-0.076c1.167-0.704,2.291-1.301,3.43-1.821c3.718-1.709,7.683-2.722,11.778-3.009      c0.021-0.002,0.042-0.002,0.063-0.004c0.845-0.054,1.613-0.082,2.345-0.082c5.576,0,11.113,1.381,16.012,3.995      c1.143,0.61,1.76,1.89,1.524,3.164c-0.236,1.274-1.271,2.25-2.556,2.409c-8.919,1.109-16.778,7.32-20.021,15.825      C83.429,49.857,82.305,50.592,81.102,50.592z M79.213,44.041c0.062,0.014,0.123,0.028,0.185,0.043      c3.086-6.324,8.301-11.417,14.547-14.41c-1.642-0.295-3.319-0.444-5.026-0.444c-0.613,0-1.267,0.023-1.999,0.072      c-0.012,0.001-0.024,0.002-0.035,0.002c-3.364,0.241-6.617,1.075-9.673,2.479c-0.968,0.444-1.928,0.956-2.938,1.57      c-0.035,0.021-0.07,0.042-0.106,0.063c-0.426,0.262-0.867,0.553-1.311,0.862c-0.661,0.458-1.336,0.977-2.018,1.55      c-1.751,1.477-3.319,3.16-4.658,5.001c-0.398,0.55-0.78,1.119-1.138,1.697c0.845,0.011,1.672,0.033,2.471,0.065      c0.517,0.019,1.043,0.048,1.564,0.078l0.629,0.038c0.632,0.042,1.228,0.084,1.807,0.142c0.074,0.003,0.156,0.01,0.247,0.02      c0.178,0.018,0.355,0.035,0.529,0.056c0.253,0.02,0.5,0.045,0.742,0.077c0.378,0.04,0.755,0.088,1.122,0.139      c0.21,0.025,0.471,0.062,0.729,0.099c0.249,0.03,0.491,0.069,0.729,0.109c0.095,0.01,0.188,0.025,0.28,0.044      c0.124,0.019,0.246,0.04,0.369,0.061c0.39,0.061,0.816,0.142,1.237,0.223c0.176,0.03,0.339,0.06,0.51,0.098      c0.137,0.028,0.29,0.061,0.441,0.098l0.057,0.011c0.134,0.024,0.244,0.049,0.349,0.077      C78.977,43.984,79.095,44.011,79.213,44.041z"/>
</g>
<g>
<path d="M77.802,46.775c-0.273-0.066-0.553-0.12-0.832-0.173c0.143,0.024,0.273,0.047,0.41,0.077      C77.522,46.709,77.666,46.738,77.802,46.775z" fill="#FFFFFF"/>
<path d="M77.804,49.748c-0.23,0-0.463-0.026-0.696-0.083c-0.229-0.055-0.463-0.1-0.697-0.144      c-1.599-0.306-2.655-1.84-2.368-3.443c0.287-1.602,1.809-2.679,3.415-2.409c0.191,0.032,0.367,0.065,0.55,0.104      c0.119,0.024,0.25,0.053,0.381,0.083c1.366,0.268,2.396,1.472,2.396,2.917c0,1.586-1.244,2.883-2.81,2.967      C77.919,49.746,77.862,49.748,77.804,49.748z"/>
</g>
<g>
<path d="M78.164,46.852c-0.119-0.03-0.243-0.054-0.362-0.076c0.059,0.011,0.119,0.022,0.185,0.034      C78.051,46.822,78.105,46.834,78.164,46.852z" fill="#FFFFFF"/>
<path d="M78.167,49.825c-0.239,0-0.48-0.028-0.721-0.088c-0.057-0.014-0.115-0.025-0.172-0.036      c-1.608-0.32-2.68-1.886-2.363-3.495c0.317-1.609,1.853-2.665,3.46-2.349l0.136,0.026c0.106,0.02,0.196,0.038,0.282,0.059      c1.348,0.283,2.361,1.478,2.361,2.909c0,1.589-1.248,2.888-2.816,2.969C78.277,49.823,78.222,49.825,78.167,49.825z"/>
</g>
</g>
<g>
<g>
<path d="M29.551,73.645c-0.609,0-1.217-0.231-1.682-0.696c-0.928-0.929-0.928-2.435,0-3.362l25.313-25.313      c0.929-0.929,2.435-0.931,3.364-0.003c0.929,0.928,0.931,2.433,0.003,3.362L31.233,72.949      C30.769,73.414,30.16,73.645,29.551,73.645z"/>
</g>
<g>
<path d="M29.379,97.575c-0.609,0-1.217-0.232-1.682-0.697c-0.928-0.928-0.928-2.434,0-3.361l48.424-48.423      c0.929-0.929,2.434-0.929,3.363,0c0.928,0.927,0.928,2.434,0,3.362L31.061,96.877C30.596,97.342,29.988,97.575,29.379,97.575z"/>
</g>
<g>
<path d="M37.88,112.827c-0.609,0-1.218-0.232-1.682-0.697c-0.928-0.928-0.928-2.436,0-3.362l51.8-51.801      c0.929-0.929,2.435-0.929,3.363,0c0.929,0.928,0.929,2.434,0,3.362l-51.8,51.801C39.097,112.594,38.488,112.827,37.88,112.827z"/>
</g>
<g>
<path d="M49.759,124.703c-0.61,0-1.219-0.233-1.684-0.699c-0.928-0.93-0.925-2.436,0.004-3.362l48.427-48.428      c0.93-0.929,2.435-0.929,3.363,0c0.929,0.929,0.929,2.434,0,3.362l-48.431,48.432C50.974,124.47,50.367,124.703,49.759,124.703z      "/>
</g>
<g>
<path d="M72.689,125.523c-0.609,0-1.217-0.232-1.682-0.697c-0.929-0.929-0.929-2.434,0-3.362l25.32-25.32      c0.928-0.929,2.434-0.929,3.363,0c0.929,0.928,0.929,2.435,0,3.363l-25.32,25.319C73.907,125.291,73.298,125.523,72.689,125.523      z"/>
</g>
<g>
<path d="M54.866,125.523c-0.609,0-1.217-0.232-1.682-0.697L27.87,99.512c-0.928-0.93-0.928-2.436,0-3.364      c0.929-0.929,2.435-0.929,3.364,0l25.314,25.315c0.929,0.929,0.929,2.434,0,3.362C56.083,125.291,55.474,125.523,54.866,125.523      z"/>
</g>
<g>
<path d="M77.802,124.703c-0.608,0-1.217-0.232-1.682-0.697l-48.429-48.43c-0.928-0.929-0.928-2.434,0-3.362      c0.929-0.929,2.434-0.929,3.363,0l48.429,48.429c0.928,0.929,0.928,2.436,0,3.363C79.02,124.47,78.411,124.703,77.802,124.703z"/>
</g>
<g>
<path d="M89.68,112.827c-0.609,0-1.218-0.232-1.682-0.697l-51.8-51.801c-0.928-0.928-0.928-2.434,0-3.362      c0.93-0.929,2.435-0.929,3.363,0l51.8,51.801c0.929,0.927,0.929,2.435,0,3.362C90.897,112.594,90.288,112.827,89.68,112.827z"/>
</g>
<g>
<path d="M98.182,97.575c-0.608,0-1.217-0.232-1.682-0.697L48.078,48.455c-0.929-0.929-0.929-2.435,0-3.362      c0.929-0.929,2.434-0.929,3.362,0l48.423,48.423c0.929,0.928,0.929,2.434,0,3.361C99.399,97.342,98.791,97.575,98.182,97.575z"/>
</g>
<g>
<path d="M98.009,73.652c-0.608,0-1.217-0.233-1.681-0.697l-25.32-25.32c-0.929-0.929-0.929-2.435,0-3.363      c0.929-0.928,2.435-0.928,3.363,0l25.32,25.32c0.929,0.928,0.929,2.434,0,3.362C99.227,73.418,98.618,73.652,98.009,73.652z"/>
</g>
</g>
</g>
</g>
</svg>